<?xml version="1.0" standalone="no"?>
<!DOCTYPE svg PUBLIC "-//W3C//DTD SVG 20010904//EN"
 "http://www.w3.org/TR/2001/REC-SVG-20010904/DTD/svg10.dtd">
<svg version="1.0" xmlns="http://www.w3.org/2000/svg"
 width="413.000000pt" height="61.000000pt" viewBox="0 0 413.000000 61.000000"
 preserveAspectRatio="xMidYMid meet">

<g transform="translate(0.000000,61.000000) scale(0.100000,-0.100000)"
fill="#000000" stroke="none">
<path d="M70 300 l0 -270 125 0 c113 0 125 2 135 19 6 12 10 112 10 255 0 200
-2 237 -16 250 -12 13 -40 16 -135 16 l-119 0 0 -270z m180 0 l0 -180 -45 0
-45 0 0 180 0 180 45 0 45 0 0 -180z"/>
<path d="M430 435 c0 -127 -1 -135 -19 -135 -19 0 -23 -6 -35 -62 -6 -26 -4
-28 24 -28 l30 0 0 -90 0 -90 119 0 c137 0 151 7 151 70 0 40 0 40 -62 54 -23
5 -28 3 -28 -14 0 -17 -7 -20 -45 -20 l-45 0 0 45 0 45 40 0 40 0 0 45 0 45
-40 0 -40 0 0 90 0 90 41 0 c24 0 47 -6 53 -14 6 -8 28 -17 49 -20 l37 -7 0
49 c0 75 -13 82 -153 82 l-117 0 0 -135z"/>
<path d="M734 543 c7 -38 86 -502 86 -509 0 -3 21 -4 47 -2 l48 3 45 268 46
267 -46 0 -46 0 -18 -117 c-10 -65 -22 -124 -26 -131 -4 -8 -15 35 -24 95 -27
164 -21 153 -73 153 -43 0 -44 -1 -39 -27z"/>
<path d="M1249 553 c-10 -11 -15 -53 -18 -135 -3 -108 -5 -118 -22 -118 -10 0
-19 -6 -19 -14 0 -7 -3 -28 -6 -45 -6 -28 -4 -31 20 -31 l26 0 0 -90 0 -90 50
0 50 0 0 90 0 90 40 0 40 0 0 45 0 45 -40 0 -40 0 0 90 0 90 45 0 c33 0 45 -4
45 -15 0 -9 9 -15 24 -15 13 0 31 -3 40 -6 13 -5 16 3 16 48 0 30 -5 59 -12
66 -8 8 -49 12 -119 12 -87 0 -109 -3 -120 -17z"/>
<path d="M1530 435 c0 -127 -1 -135 -19 -135 -24 0 -26 -4 -35 -53 -7 -36 -6
-37 24 -37 l30 0 0 -90 0 -90 119 0 c113 0 121 1 135 22 9 12 16 37 16 55 0
34 1 33 -72 48 -12 2 -18 -3 -18 -16 0 -16 -7 -19 -45 -19 l-45 0 0 45 0 45
40 0 40 0 0 45 0 45 -40 0 -40 0 0 90 0 90 45 0 c33 0 45 -4 45 -15 0 -9 9
-15 23 -15 12 0 32 -3 45 -6 20 -6 22 -3 22 38 0 24 -7 54 -16 66 -14 21 -22
22 -135 22 l-119 0 0 -135z"/>
<path d="M1830 435 l0 -135 -24 0 c-25 0 -27 -4 -40 -62 -6 -26 -4 -28 29 -28
l35 0 0 -90 0 -90 45 0 45 0 1 88 1 87 41 -87 42 -88 43 0 c23 0 42 2 42 5 0
3 -18 41 -40 85 -22 44 -40 82 -40 85 0 3 13 5 28 5 55 0 62 21 62 182 0 185
6 178 -153 178 l-117 0 0 -135z m180 -45 l0 -90 -45 0 -45 0 0 90 0 90 45 0
45 0 0 -90z"/>
<path d="M2130 300 l0 -270 45 0 45 0 1 133 1 132 42 -130 42 -130 47 -3 47
-3 0 270 0 271 -45 0 -44 0 -3 -132 -3 -133 -43 133 -43 132 -44 0 -45 0 0
-270z"/>
<path d="M2555 548 c-2 -13 -16 -86 -30 -163 -33 -175 -32 -175 -55 -175 -23
0 -25 -4 -34 -52 -6 -34 -5 -38 15 -38 20 0 21 -3 15 -45 l-7 -45 45 0 c45 0
45 0 53 43 l9 42 54 0 54 0 9 -43 c8 -42 8 -42 53 -42 49 0 48 -1 34 67 -5 26
-25 134 -45 238 -19 105 -38 200 -40 213 -5 20 -11 22 -65 22 -54 0 -60 -2
-65 -22z m86 -253 l15 -85 -36 0 -36 0 15 85 c9 47 18 85 22 85 3 0 12 -38 20
-85z"/>
<path d="M2810 300 l0 -270 45 0 44 0 3 133 c2 72 6 125 10 117 4 -8 23 -68
43 -132 l37 -118 44 0 44 0 0 270 0 270 -45 0 -45 0 -1 -132 0 -133 -42 133
-41 132 -48 0 -48 0 0 -270z"/>
<path d="M3110 300 l0 -270 123 0 c82 0 127 4 135 12 9 9 12 80 12 260 0 234
-1 248 -19 258 -11 5 -72 10 -135 10 l-116 0 0 -270z m180 0 l0 -180 -45 0
-45 0 0 180 0 180 45 0 45 0 0 -180z"/>
<path d="M3470 435 c0 -127 -1 -135 -19 -135 -15 0 -22 -10 -28 -42 -9 -42 -8
-43 19 -46 l28 -3 0 -90 0 -89 125 0 c113 0 125 2 135 19 17 33 13 89 -7 94
-66 18 -73 18 -73 -3 0 -17 -7 -20 -45 -20 l-45 0 0 45 0 45 45 0 45 0 0 45 0
45 -45 0 -45 0 0 90 0 90 41 0 c24 0 47 -6 53 -14 6 -8 28 -17 49 -20 l37 -7
0 50 c0 76 -10 81 -151 81 l-119 0 0 -135z"/>
<path d="M3787 552 c-14 -15 -17 -41 -17 -135 l0 -117 90 0 90 0 0 -90 0 -90
-45 0 -45 0 0 45 0 45 -45 0 -45 0 0 -90 0 -90 119 0 c95 0 123 3 135 16 13
13 16 44 16 180 l0 164 -90 0 -90 0 0 45 0 45 90 0 90 0 0 45 0 45 -118 0
c-103 0 -121 -3 -135 -18z"/>
</g>
</svg>
